{
	"asset":{
		"generator":"Khronos glTF Blender I/O v4.0.44",
		"version":"2.0"
	},
	"scene":0,
	"scenes":[
		{
			"name":"Scene",
			"nodes":[
				0
			]
		}
	],
	"nodes":[
		{
			"mesh":0,
			"name":"Plane",
			"rotation":[
				0.7071068286895752,
				0,
				0,
				0.7071068286895752
			],
			"scale":[
				1.722514033317566,
				0.9234408140182495,
				0.9655921459197998
			]
		}
	],
	"materials":[
		{
			"doubleSided":true,
			"name":"Material.001",
			"pbrMetallicRoughness":{
				"baseColorTexture":{
					"index":0
				},
				"metallicFactor":0,
				"roughnessFactor":0.5
			}
		},
		{
			"doubleSided":true,
			"name":"Material.002",
			"pbrMetallicRoughness":{
				"baseColorTexture":{
					"index":1
				},
				"metallicFactor":0,
				"roughnessFactor":0.5
			}
		},
		{
			"doubleSided":true,
			"name":"Material.003",
			"pbrMetallicRoughness":{
				"baseColorFactor":[
					0.004333386663347483,
					0.004333386663347483,
					0.004333386663347483,
					1
				],
				"metallicFactor":0,
				"roughnessFactor":0.5
			}
		},
		{
			"doubleSided":true,
			"name":"Material.004",
			"pbrMetallicRoughness":{
				"baseColorFactor":[
					0.8003931045532227,
					0.04290567338466644,
					0.05352909117937088,
					1
				],
				"metallicFactor":0,
				"roughnessFactor":0.5
			}
		},
		{
			"doubleSided":true,
			"name":"Material.005",
			"pbrMetallicRoughness":{
				"baseColorFactor":[
					0.8002825975418091,
					0.05219169333577156,
					0.06768850982189178,
					1
				],
				"metallicFactor":0,
				"roughnessFactor":0.5
			}
		}
	],
	"meshes":[
		{
			"name":"Plane",
			"primitives":[
				{
					"attributes":{
						"POSITION":0,
						"NORMAL":1,
						"TEXCOORD_0":2
					},
					"indices":3,
					"material":0
				},
				{
					"attributes":{
						"POSITION":4,
						"NORMAL":5,
						"TEXCOORD_0":6
					},
					"indices":7,
					"material":1
				},
				{
					"attributes":{
						"POSITION":8,
						"NORMAL":9,
						"TEXCOORD_0":10
					},
					"indices":11,
					"material":2
				},
				{
					"attributes":{
						"POSITION":12,
						"NORMAL":13,
						"TEXCOORD_0":14
					},
					"indices":15,
					"material":3
				},
				{
					"attributes":{
						"POSITION":16,
						"NORMAL":17,
						"TEXCOORD_0":18
					},
					"indices":19,
					"material":4
				}
			]
		}
	],
	"textures":[
		{
			"sampler":0,
			"source":0
		},
		{
			"sampler":0,
			"source":1
		}
	],
	"images":[
		{
			"mimeType":"image/png",
			"name":"Front",
			"uri":"texture/Front.png"
		},
		{
			"mimeType":"image/png",
			"name":"Back",
			"uri":"texture/Back.png"
		}
	],
	"accessors":[
		{
			"bufferView":0,
			"componentType":5126,
			"count":48,
			"max":[
				1,
				0,
				1
			],
			"min":[
				-1,
				-0.029999999329447746,
				-1
			],
			"type":"VEC3"
		},
		{
			"bufferView":1,
			"componentType":5126,
			"count":48,
			"type":"VEC3"
		},
		{
			"bufferView":2,
			"componentType":5126,
			"count":48,
			"type":"VEC2"
		},
		{
			"bufferView":3,
			"componentType":5123,
			"count":132,
			"type":"SCALAR"
		},
		{
			"bufferView":4,
			"componentType":5126,
			"count":44,
			"max":[
				1,
				-0.029999999329447746,
				1
			],
			"min":[
				-1,
				-0.029999999329447746,
				-1
			],
			"type":"VEC3"
		},
		{
			"bufferView":5,
			"componentType":5126,
			"count":44,
			"type":"VEC3"
		},
		{
			"bufferView":6,
			"componentType":5126,
			"count":44,
			"type":"VEC2"
		},
		{
			"bufferView":7,
			"componentType":5123,
			"count":126,
			"type":"SCALAR"
		},
		{
			"bufferView":8,
			"componentType":5126,
			"count":160,
			"max":[
				1,
				0,
				1
			],
			"min":[
				-1,
				-0.029999999329447746,
				-1
			],
			"type":"VEC3"
		},
		{
			"bufferView":9,
			"componentType":5126,
			"count":160,
			"type":"VEC3"
		},
		{
			"bufferView":10,
			"componentType":5126,
			"count":160,
			"type":"VEC2"
		},
		{
			"bufferView":11,
			"componentType":5123,
			"count":240,
			"type":"SCALAR"
		},
		{
			"bufferView":12,
			"componentType":5126,
			"count":8,
			"max":[
				0.7809536457061768,
				0,
				1
			],
			"min":[
				-0.7809536457061768,
				-0.029999999329447746,
				-1
			],
			"type":"VEC3"
		},
		{
			"bufferView":13,
			"componentType":5126,
			"count":8,
			"type":"VEC3"
		},
		{
			"bufferView":14,
			"componentType":5126,
			"count":8,
			"type":"VEC2"
		},
		{
			"bufferView":15,
			"componentType":5123,
			"count":12,
			"type":"SCALAR"
		},
		{
			"bufferView":16,
			"componentType":5126,
			"count":4,
			"max":[
				1,
				0,
				0.7809536457061768
			],
			"min":[
				1,
				-0.029999999329447746,
				-0.7809536457061768
			],
			"type":"VEC3"
		},
		{
			"bufferView":17,
			"componentType":5126,
			"count":4,
			"type":"VEC3"
		},
		{
			"bufferView":18,
			"componentType":5126,
			"count":4,
			"type":"VEC2"
		},
		{
			"bufferView":19,
			"componentType":5123,
			"count":6,
			"type":"SCALAR"
		}
	],
	"bufferViews":[
		{
			"buffer":0,
			"byteLength":576,
			"byteOffset":0,
			"target":34962
		},
		{
			"buffer":0,
			"byteLength":576,
			"byteOffset":576,
			"target":34962
		},
		{
			"buffer":0,
			"byteLength":384,
			"byteOffset":1152,
			"target":34962
		},
		{
			"buffer":0,
			"byteLength":264,
			"byteOffset":1536,
			"target":34963
		},
		{
			"buffer":0,
			"byteLength":528,
			"byteOffset":1800,
			"target":34962
		},
		{
			"buffer":0,
			"byteLength":528,
			"byteOffset":2328,
			"target":34962
		},
		{
			"buffer":0,
			"byteLength":352,
			"byteOffset":2856,
			"target":34962
		},
		{
			"buffer":0,
			"byteLength":252,
			"byteOffset":3208,
			"target":34963
		},
		{
			"buffer":0,
			"byteLength":1920,
			"byteOffset":3460,
			"target":34962
		},
		{
			"buffer":0,
			"byteLength":1920,
			"byteOffset":5380,
			"target":34962
		},
		{
			"buffer":0,
			"byteLength":1280,
			"byteOffset":7300,
			"target":34962
		},
		{
			"buffer":0,
			"byteLength":480,
			"byteOffset":8580,
			"target":34963
		},
		{
			"buffer":0,
			"byteLength":96,
			"byteOffset":9060,
			"target":34962
		},
		{
			"buffer":0,
			"byteLength":96,
			"byteOffset":9156,
			"target":34962
		},
		{
			"buffer":0,
			"byteLength":64,
			"byteOffset":9252,
			"target":34962
		},
		{
			"buffer":0,
			"byteLength":24,
			"byteOffset":9316,
			"target":34963
		},
		{
			"buffer":0,
			"byteLength":48,
			"byteOffset":9340,
			"target":34962
		},
		{
			"buffer":0,
			"byteLength":48,
			"byteOffset":9388,
			"target":34962
		},
		{
			"buffer":0,
			"byteLength":32,
			"byteOffset":9436,
			"target":34962
		},
		{
			"buffer":0,
			"byteLength":12,
			"byteOffset":9468,
			"target":34963
		}
	],
	"samplers":[
		{
			"magFilter":9729,
			"minFilter":9987
		}
	],
	"buffers":[
		{
			"byteLength":9480,
			"uri":"TRio_3d_final.bin"
		}
	]
}
